<?xml version="1.0" encoding="utf-8" ?><svg xmlns="http://www.w3.org/2000/svg" xmlns:xlink="http://www.w3.org/1999/xlink" width="1024" height="1024" viewBox="0 0 1024 1024"><path transform="matrix(1 6.68377e-14 -6.68377e-14 1 0 0)" d="M0 0L1024 0L1024 1024L0 1024L0 0Z"/><path fill="#2EFAA0" transform="matrix(1 6.68377e-14 -6.68377e-14 1 0 0)" d="M502.72 368.109C506.426 367.743 510.069 368.627 513.26 370.558C520.882 375.169 528.475 379.821 536.109 384.417L590.305 417.29L651.049 454.367C660.191 459.924 682.967 472.826 690.035 479.1C694.747 483.283 693.123 510.452 692.012 517.316C691.117 522.839 673.955 532.121 668.511 535.503L637.896 554.64L529.987 621.91C522.539 626.275 511.919 635.317 502.804 634.241C486.793 632.351 491.873 604.453 492.248 593.325C492.5 585.833 507.048 578.379 513.131 574.577L539.72 557.961L630.721 500.498C599.782 480.269 567.521 461.875 536.108 441.857C526.232 435.563 500.4 422.558 493.049 412.785C491.173 408.168 491.485 399.579 491.703 394.924C492.27 382.835 488.755 372.875 502.72 368.109Z"/><path fill="#2EFAA0" transform="matrix(1 6.68377e-14 -6.68377e-14 1 0 0)" d="M449.349 371.957L449.62 372.267C449.897 375.136 412.279 472.948 408.558 484.316C430.239 485.026 454.497 484.573 476.376 484.715C461.424 502.616 443.693 521.795 428.157 539.4L348.894 629.617L347.794 630.948L347.151 631.001C347.485 628.337 357.873 604.785 359.791 600.298L394.966 518.453C373.356 518.497 351.745 518.434 330.136 518.262C356.649 484.999 384.494 451.343 411.478 418.427C424.267 403.073 436.891 387.582 449.349 371.957Z"/></svg>